<?xml version="1.0" encoding="UTF-8"?>
<svg id="Calque_2" data-name="Calque 2" xmlns="http://www.w3.org/2000/svg" width="433.45" height="87.33" viewBox="0 0 433.45 87.33">
  <g id="Calque_1-2" data-name="Calque 1">
    <rect x="22.36" y=".06" width="411.09" height="87.03" style="fill: #f58220;"/>
    <path d="M317.06,69.22h98.52V18.02h-98.52v51.2Z" style="fill: #e4e4e4;"/>
    <rect x="40.23" y="18.02" width="276.83" height="51.2" style="fill: #1e1e1c;"/>
    <g>
      <g>
        <path d="M50.08,26.56h13.85c9.33,0,13.94,5.81,13.94,17.43,0,6-1.14,9.89-3.84,12.91-1.23,1.39-2.62,2.4-4.05,2.98-1.56,.58-4.31,1.01-6.04,1.01h-13.85V26.56Zm9.38,7.78v18.77h2.24c2.7,0,4.1-.38,4.98-1.39,1.31-1.54,1.86-3.7,1.86-7.82,0-7.1-1.77-9.55-6.8-9.55h-2.28Z" style="fill: #e4e4e4;"/>
        <path d="M63.93,61.03h-14V26.41h14c9.35,0,14.09,5.91,14.09,17.58,0,6.08-1.16,9.97-3.88,13.01-1.22,1.38-2.64,2.42-4.11,3.02-1.53,.56-4.26,1.02-6.1,1.02Zm-13.7-.3h13.7c1.81,0,4.49-.45,5.99-1,1.43-.57,2.81-1.59,3.99-2.93,2.67-2.98,3.81-6.82,3.81-12.81,0-11.62-4.51-17.28-13.79-17.28h-13.7V60.73Zm11.46-7.48h-2.39v-19.07h2.43c5.13,0,6.95,2.54,6.95,9.7,0,4.1-.53,6.32-1.89,7.92-.92,1.04-2.34,1.44-5.1,1.44Zm-2.09-.3h2.09c2.66,0,4.02-.38,4.87-1.34,1.31-1.54,1.82-3.7,1.82-7.73,0-7.03-1.68-9.4-6.65-9.4h-2.13v18.47Z" style="fill: #1e1e1c;"/>
      </g>
      <g>
        <path d="M83.36,26.51h25.05v7.39h-15.67v5.47h14.53v6.96h-14.53v6.82h16.13v7.78h-25.51V26.51Z" style="fill: #e4e4e4;"/>
        <path d="M109.02,61.08h-25.81V26.36h25.35v7.69h-15.67v5.17h14.53v7.26h-14.53v6.52h16.13v8.08Zm-25.51-.3h25.21v-7.48h-16.13v-7.12h14.53v-6.66h-14.53v-5.77h15.67v-7.09h-24.75V60.78Z" style="fill: #1e1e1c;"/>
      </g>
      <g>
        <path d="M134.01,38.75c-.89-3.22-2.7-4.9-5.36-4.9-1.65,0-3.08,.72-4.1,1.87-1.48,1.73-2.07,3.89-2.07,7.92,0,6.91,1.77,9.94,5.83,9.94,1.82,0,3.38-.77,4.35-2.11,.93-1.25,1.23-2.11,1.69-4.56l8.19,2.78c-.93,4.42-1.73,6.05-4.18,8.45-2.53,2.45-5.28,3.31-10.09,3.31-5.07,0-8.32-1.3-11.11-4.66-2.75-3.31-4.01-7.49-4.01-13.15,0-11.33,5.45-17.67,15.25-17.67,4.69,0,7.73,1.1,10.14,3.7,2.03,2.21,2.66,3.41,3.72,7.01l-8.24,2.06Z" style="fill: #e4e4e4;"/>
        <path d="M128.26,61.61c-5.2,0-8.45-1.36-11.22-4.71-2.76-3.33-4.05-7.54-4.05-13.25,0-11.49,5.47-17.82,15.4-17.82,4.74,0,7.81,1.12,10.25,3.74,2.05,2.23,2.68,3.42,3.75,7.07l.04,.15-8.53,2.14-.04-.14c-.88-3.18-2.63-4.79-5.22-4.79-1.54,0-2.95,.65-3.98,1.82-1.46,1.71-2.03,3.9-2.03,7.82,0,6.86,1.7,9.79,5.68,9.79,1.75,0,3.29-.75,4.23-2.05,.89-1.2,1.19-2,1.66-4.5l.03-.17,8.48,2.88-.03,.13c-.93,4.44-1.76,6.12-4.22,8.52-2.53,2.45-5.3,3.35-10.2,3.35Zm.13-35.48c-9.74,0-15.1,6.22-15.1,17.52,0,5.63,1.26,9.78,3.98,13.06,2.71,3.27,5.9,4.6,10.99,4.6,4.81,0,7.52-.89,9.99-3.27,2.41-2.36,3.19-3.92,4.11-8.24l-7.9-2.69c-.43,2.25-.74,3.18-1.68,4.45-1,1.38-2.63,2.17-4.47,2.17-4.14,0-5.98-3.11-5.98-10.09,0-4,.59-6.25,2.11-8.02,1.09-1.24,2.59-1.92,4.21-1.92,2.66,0,4.55,1.68,5.47,4.87l7.94-1.99c-1.03-3.47-1.66-4.64-3.64-6.8-2.37-2.56-5.37-3.65-10.03-3.65Z" style="fill: #1e1e1c;"/>
      </g>
      <g>
        <path d="M147.65,26.56h16.56c1.6,0,3.72,.29,5.11,.67,1.14,.29,2.2,.96,3.12,1.92,1.61,1.63,2.49,4.08,2.49,6.77,0,3.31-.93,5.71-2.91,7.63-1.31,1.2-2.15,1.63-4.35,2.21,2.41,.91,3.97,2.5,5.24,5.23l4.48,9.94h-10.56l-4.94-10.51c-1.27-2.64-2.2-3.46-4.01-3.46h-.84v13.97h-9.38V26.56Zm9.38,6.96v6.96h3.97c2.83,0,4.6-1.34,4.6-3.55,0-2.35-1.35-3.41-4.18-3.41h-4.39Z" style="fill: #e4e4e4;"/>
        <path d="M177.62,61.08h-10.89l-4.98-10.6c-1.25-2.61-2.12-3.37-3.88-3.37h-.69v13.97h-9.68V26.41h16.71c1.58,0,3.7,.28,5.15,.68,1.14,.29,2.21,.95,3.19,1.96,1.61,1.64,2.53,4.14,2.53,6.87,0,3.33-.94,5.79-2.96,7.74-1.25,1.14-2.08,1.6-3.98,2.13,2.2,.94,3.68,2.5,4.9,5.14l4.57,10.15Zm-10.7-.3h10.23l-4.38-9.73c-1.26-2.72-2.8-4.26-5.15-5.15l-.44-.17,.45-.12c2.16-.57,3-.99,4.29-2.17,1.95-1.89,2.87-4.28,2.87-7.52,0-2.65-.89-5.08-2.45-6.66-.94-.97-1.97-1.61-3.05-1.88-1.43-.39-3.51-.67-5.07-.67h-16.41V60.78h9.08v-13.97h.99c1.88,0,2.85,.83,4.15,3.54l4.9,10.43Zm-5.92-20.15h-4.12v-7.26h4.54c2.96,0,4.33,1.13,4.33,3.56,0,2.28-1.82,3.7-4.75,3.7Zm-3.82-.3h3.82c2.75,0,4.45-1.3,4.45-3.4,0-2.25-1.24-3.26-4.03-3.26h-4.24v6.66Z" style="fill: #1e1e1c;"/>
      </g>
      <g>
        <path d="M180.98,26.51h25.05v7.39h-15.67v5.47h14.53v6.96h-14.53v6.82h16.13v7.78h-25.51V26.51Z" style="fill: #e4e4e4;"/>
        <path d="M206.64,61.08h-25.81V26.36h25.35v7.69h-15.67v5.17h14.53v7.26h-14.53v6.52h16.13v8.08Zm-25.51-.3h25.21v-7.48h-16.13v-7.12h14.53v-6.66h-14.53v-5.77h15.67v-7.09h-24.75V60.78Z" style="fill: #1e1e1c;"/>
      </g>
      <g>
        <path d="M211.73,26.56h12.29l4.73,20.93,4.73-20.93h12.29V60.93h-7.64v-26.21l-5.96,26.21h-6.88l-5.91-26.21v26.21h-7.64V26.56Z" style="fill: #e4e4e4;"/>
        <path d="M245.92,61.08h-7.94v-25.02l-5.69,25.02h-7.12l-5.64-25.01v25.01h-7.94V26.41h12.56l4.61,20.4,4.61-20.4h12.56V61.08Zm-7.64-.3h7.34V26.71h-12.02l-4.85,21.46-4.85-21.46h-12.02V60.78h7.34v-27.41l6.18,27.41h6.65l6.22-27.4v27.4Z" style="fill: #1e1e1c;"/>
      </g>
      <g>
        <path d="M252.28,26.56h15.54c6.63,0,10.09,3.6,10.09,10.56,0,5.28-2.03,8.74-6.04,10.27-1.69,.67-2.49,.77-5.11,.77h-5.11v12.77h-9.38V26.56Zm9.38,14.64h2.28c3.25,0,4.9-1.25,4.9-3.79s-1.48-3.89-4.52-3.89h-2.66v7.68Z" style="fill: #e4e4e4;"/>
        <path d="M261.81,61.08h-9.68V26.41h15.69c6.7,0,10.25,3.7,10.25,10.71,0,5.35-2.07,8.85-6.14,10.41-1.76,.7-2.61,.78-5.16,.78h-4.96v12.77Zm-9.38-.3h9.08v-12.77h5.26c2.68,0,3.44-.11,5.05-.76,3.95-1.51,5.95-4.92,5.95-10.13,0-6.91-3.35-10.41-9.94-10.41h-15.39V60.78Zm11.51-19.43h-2.43v-7.98h2.81c3.1,0,4.67,1.36,4.67,4.04s-1.7,3.94-5.05,3.94Zm-2.13-.3h2.13c3.2,0,4.75-1.19,4.75-3.64s-1.43-3.74-4.37-3.74h-2.51v7.38Z" style="fill: #1e1e1c;"/>
      </g>
      <g>
        <path d="M299.29,36.83c-.46-3.12-1.86-4.46-4.6-4.46-1.99,0-3.25,1.06-3.25,2.69,0,1.39,.97,2.06,3.8,2.78,5.49,1.34,8.45,2.54,10.56,4.22,2.07,1.73,3.29,4.56,3.29,7.68,0,3.31-1.27,6.38-3.46,8.45-2.58,2.35-5.45,3.26-9.93,3.26s-7.81-.82-9.88-2.54c-1.1-.91-2.07-2.21-2.83-3.84-.93-2.02-1.14-2.98-1.35-5.52l8.91-.62c.42,3.94,2.2,5.86,5.28,5.86,2.45,0,4.18-1.49,4.18-3.55,0-2.21-1.44-3.31-5.83-4.42-6.08-1.54-8.91-3.31-10.52-6.67-.59-1.25-.89-2.69-.89-4.13,0-2.69,1.14-5.33,3-7.01,2.37-2.11,5.28-3.02,9.84-3.02,7.86,0,11.7,3.17,12.46,10.23l-8.79,.62Z" style="fill: #e4e4e4;"/>
        <path d="M295.7,61.61c-4.64,0-7.9-.84-9.98-2.58-1.14-.95-2.11-2.26-2.87-3.89-.96-2.09-1.16-3.07-1.37-5.57v-.15s.14-.01,.14-.01l9.06-.63,.02,.14c.41,3.85,2.09,5.72,5.13,5.72,2.37,0,4.03-1.4,4.03-3.4,0-2.15-1.39-3.18-5.71-4.27-6.13-1.55-9-3.38-10.62-6.75-.59-1.25-.9-2.7-.9-4.19,0-2.73,1.14-5.4,3.05-7.12,2.4-2.15,5.38-3.06,9.94-3.06,7.95,0,11.84,3.19,12.61,10.36l.02,.15-9.08,.65-.02-.14c-.45-3.04-1.79-4.34-4.46-4.34-1.88,0-3.1,1-3.1,2.54,0,1.29,.9,1.93,3.69,2.64,5.48,1.34,8.46,2.53,10.62,4.25,2.1,1.75,3.35,4.67,3.35,7.8,0,3.34-1.28,6.46-3.51,8.56-2.57,2.35-5.48,3.3-10.03,3.3Zm-13.9-11.92c.21,2.49,.45,3.41,1.33,5.32,.74,1.59,1.68,2.87,2.79,3.79,2.02,1.69,5.22,2.51,9.79,2.51s7.32-.93,9.82-3.23c2.17-2.04,3.42-5.08,3.42-8.34,0-3.04-1.21-5.87-3.24-7.57-2.12-1.69-5.06-2.86-10.5-4.19-2.96-.75-3.92-1.47-3.92-2.93,0-1.72,1.34-2.84,3.4-2.84,2.77,0,4.24,1.38,4.73,4.46l8.49-.6c-.79-6.87-4.59-9.94-12.29-9.94-4.48,0-7.4,.89-9.74,2.99-1.85,1.67-2.95,4.25-2.95,6.9,0,1.45,.3,2.86,.87,4.06,1.57,3.28,4.39,5.07,10.42,6.59,4.44,1.12,5.94,2.27,5.94,4.56,0,2.15-1.82,3.7-4.33,3.7-3.14,0-4.96-1.97-5.41-5.85l-8.62,.6Z" style="fill: #1e1e1c;"/>
      </g>
    </g>
    <g>
      <path d="M325.1,60.93V27.28h16.69c3.31,0,5.5,.99,7.07,3.2,.97,1.41,1.58,3.24,1.58,4.93,0,3.24-1.25,5.83-3.44,7.05-.28,.14-.69,.33-1.25,.56,4.12,1.17,6.02,3.85,6.02,8.51,0,4.09-2.42,7.75-5.7,8.65-1.13,.33-2.63,.52-4.45,.71-.57,.05-.93,.05-1.13,.05h-15.4Zm8.97-20.44h3.88c2.63,0,3.76-.99,3.76-3.29,0-2.16-1.13-3.1-3.72-3.1h-3.92v6.39Zm0,13.21h4.57c2.83,0,4.2-1.13,4.2-3.52,0-2.26-1.33-3.34-4.2-3.34h-4.57v6.86Z" style="fill: #f58220;"/>
      <path d="M353.39,27.28h27.16v8.27h-9.09v25.38h-8.97v-25.38h-9.09v-8.27Z" style="fill: #f58220;"/>
      <path d="M383.34,27.28h14.88c6.35,0,9.66,3.52,9.66,10.34,0,5.17-1.94,8.55-5.78,10.06-1.62,.66-2.38,.75-4.89,.75h-4.89v12.5h-8.97V27.28Zm8.97,14.33h2.18c3.11,0,4.69-1.22,4.69-3.71s-1.42-3.81-4.33-3.81h-2.55v7.52Z" style="fill: #f58220;"/>
    </g>
    <g>
      <path d="M.57,86.96v-2.35c0-.72,.08-1.32,.24-1.81,.15-.45,.43-.86,.82-1.21,.59-.53,1.35-.91,2.29-1.14,.91-.23,2.22-.34,3.92-.34,1.56,0,2.83,.13,3.82,.38,.94,.25,1.66,.65,2.16,1.21,.62,.69,.93,1.93,.93,3.72v1.54H.57Zm12.5-1.91c0-1.16-.35-1.94-1.06-2.33-.7-.4-2.07-.61-4.1-.61-2.19,0-3.69,.19-4.51,.58-.82,.39-1.23,1.09-1.23,2.12v.24H13.07Z" style="fill: #e4e4e4; stroke: #e4e4e4; stroke-miterlimit: 10; stroke-width: .75px;"/>
      <path d="M.57,76.93v-5.08h1.62v3.17H6.67v-2.81h1.62v2.81h4.84v-3.17h1.62v5.08H.57Z" style="fill: #e4e4e4; stroke: #e4e4e4; stroke-miterlimit: 10; stroke-width: .75px;"/>
      <path d="M.57,68.45v-2.51c0-1.21,.31-2.09,.92-2.64,.62-.55,1.6-.83,2.94-.83,1.88,0,3.1,.55,3.65,1.66,.25,.56,.38,1.36,.38,2.41h6.29v1.91H.57Zm6.25-1.91c0-.79-.16-1.33-.48-1.63-.32-.31-.9-.46-1.73-.46s-1.46,.15-1.85,.44-.59,.76-.59,1.39v.27H6.82Z" style="fill: #e4e4e4; stroke: #e4e4e4; stroke-miterlimit: 10; stroke-width: .75px;"/>
      <path d="M.57,59.71v-1.87H10.58c1.02,0,1.7-.09,2.04-.28,.34-.19,.5-.56,.5-1.12s-.15-.92-.44-1.1c-.3-.18-.91-.28-1.83-.28H.57v-1.87H10.86c1.54,0,2.59,.24,3.13,.71,.62,.56,.93,1.42,.93,2.58,0,1.27-.4,2.17-1.19,2.69-.54,.36-1.59,.54-3.14,.54H.57Z" style="fill: #e4e4e4; stroke: #e4e4e4; stroke-miterlimit: 10; stroke-width: .75px;"/>
      <path d="M.57,49.36v-1.91H14.74v1.91H.57Z" style="fill: #e4e4e4; stroke: #e4e4e4; stroke-miterlimit: 10; stroke-width: .75px;"/>
      <path d="M.86,38.88h1.86c-.42,.58-.62,1.1-.62,1.57,0,.5,.18,.91,.53,1.23,.34,.32,.79,.48,1.35,.48,.5,0,.92-.11,1.28-.34,.19-.12,.43-.31,.73-.57s.66-.61,1.08-1.03c.79-.78,1.47-1.31,2.05-1.59,.56-.28,1.24-.42,2.05-.42,1.1,0,2,.31,2.71,.93,.69,.62,1.04,1.41,1.04,2.38,0,.81-.22,1.51-.67,2.08h-1.89c.5-.68,.74-1.3,.74-1.85,0-.52-.17-.93-.52-1.22-.35-.29-.82-.44-1.41-.44-.51,0-.98,.11-1.39,.34-.2,.12-.42,.28-.67,.49s-.54,.47-.85,.78c-.48,.48-.9,.88-1.27,1.2-.37,.32-.69,.55-.96,.71-.54,.29-1.22,.44-2.04,.44-1.11,0-1.99-.29-2.63-.86-.65-.58-.98-1.36-.98-2.34,0-.68,.16-1.33,.49-1.95Z" style="fill: #e4e4e4; stroke: #e4e4e4; stroke-miterlimit: 10; stroke-width: .75px;"/>
      <path d="M.57,31.06v-3.23H14.74v1.83H2.19v1.4H.57Z" style="fill: #e4e4e4; stroke: #e4e4e4; stroke-miterlimit: 10; stroke-width: .75px;"/>
      <path d="M14.74,20.86v2.04l-2.75-1.37c-.5-.25-1.02-.49-1.55-.73s-1.08-.48-1.66-.71c.38,.47,.57,.96,.57,1.46,0,.84-.34,1.46-1.01,1.85s-1.73,.6-3.15,.6c-1.71,0-2.94-.23-3.68-.7-.74-.46-1.11-1.24-1.11-2.32s.37-1.88,1.12-2.35,1.99-.71,3.73-.71c1.29,0,2.47,.15,3.56,.44,.54,.14,1.14,.34,1.8,.61,.66,.26,1.41,.59,2.23,.98l1.55,.74,.35,.17Zm-9.8-1.07c-1.87,0-2.8,.4-2.8,1.2s.92,1.19,2.76,1.19c.97,0,1.67-.09,2.1-.28s.65-.49,.65-.91-.22-.73-.65-.92c-.43-.19-1.12-.28-2.07-.28Z" style="fill: #e4e4e4; stroke: #e4e4e4; stroke-miterlimit: 10; stroke-width: .75px;"/>
      <path d="M.57,15.23v-6.33l14.17,4.3v2.04L2.18,11.29v3.94H.57Z" style="fill: #e4e4e4; stroke: #e4e4e4; stroke-miterlimit: 10; stroke-width: .75px;"/>
      <path d="M5.18,4.68v1.87l-.56,.02c-1.55,0-2.64-.23-3.27-.7-.64-.47-.95-1.26-.95-2.37C.39,1.42,1.55,.38,3.86,.38c1.56,0,3.81,.78,6.75,2.34l2.12,1.13s.05,.02,.11,.05c.06,.03,.15,.07,.27,.13V.52h1.63V6.75c-.23-.1-.69-.32-1.39-.65-.69-.33-1.62-.78-2.8-1.35-1.03-.48-1.9-.89-2.62-1.21-.72-.32-1.3-.57-1.76-.73-.92-.33-1.71-.5-2.38-.5-1.17,0-1.76,.41-1.76,1.22s.73,1.17,2.18,1.17h.81s.15-.02,.15-.02Z" style="fill: #e4e4e4; stroke: #e4e4e4; stroke-miterlimit: 10; stroke-width: .75px;"/>
    </g>
  </g>
</svg>